<svg width="30" height="22" viewBox="0 0 30 22" fill="none" xmlns="http://www.w3.org/2000/svg">
<g clip-path="url(#clip0_201_762)">
<path d="M27.5063 12.9473L29.9684 4.0098C30.1461 3.3645 29.5516 2.75 28.7495 2.75H8.29208L7.81469 0.82457C7.69573 0.344652 7.18385 0 6.59005 0H1.25C0.559635 0 0 0.461699 0 1.03125V1.71875C0 2.2883 0.559635 2.75 1.25 2.75H4.88974L8.54849 17.507C7.67318 17.9223 7.08333 18.7009 7.08333 19.5938C7.08333 20.9227 8.38917 22 10 22C11.6108 22 12.9167 20.9227 12.9167 19.5938C12.9167 18.9203 12.5809 18.3118 12.0404 17.875H22.9595C22.4191 18.3118 22.0833 18.9203 22.0833 19.5938C22.0833 20.9227 23.3892 22 25 22C26.6108 22 27.9167 20.9227 27.9167 19.5938C27.9167 18.641 27.2454 17.8178 26.2719 17.4279L26.5593 16.3848C26.737 15.7395 26.1425 15.125 25.3404 15.125H11.3603L11.0194 13.75H26.2873C26.871 13.75 27.3769 13.4168 27.5063 12.9473Z" fill="#F8F8F8"/>
</g>
<defs>
<clipPath id="clip0_201_762">
<rect width="30" height="22" fill="white"/>
</clipPath>
</defs>
</svg>
