<svg width="30" height="23" viewBox="0 0 30 23" fill="none" xmlns="http://www.w3.org/2000/svg">
<path d="M28.975 18.1323L23.9072 14.4541L20.0093 13.2852C21.3072 11.9456 22.0025 10.3474 22 8.7097C22 4.30737 17.0654 0.72583 11 0.72583C4.93456 0.72583 0 4.30737 0 8.7097C0 13.112 4.93456 16.6936 11 16.6936C13.276 16.6955 15.4962 16.182 17.3512 15.2249L18.9574 18.0464L24.025 21.7248C24.35 21.9607 24.7358 22.1479 25.1605 22.2755C25.5851 22.4032 26.0403 22.4689 26.4999 22.4689C26.9595 22.4689 27.4147 22.4032 27.8393 22.2756C28.264 22.1479 28.6498 21.9608 28.9748 21.7249C29.2999 21.489 29.5577 21.209 29.7336 20.9008C29.9095 20.5926 30.0001 20.2622 30.0001 19.9286C30.0001 19.595 29.9096 19.2647 29.7337 18.9565C29.5578 18.6483 29.3 18.3682 28.975 18.1323ZM2 8.7097C2 5.10789 6.0375 2.17744 11 2.17744C15.9625 2.17744 20 5.10789 20 8.7097C20 12.3115 15.9625 15.242 11 15.242C6.0375 15.242 2 12.3115 2 8.7097ZM27.5607 20.6984C27.2792 20.9023 26.8977 21.0168 26.5 21.0168C26.1023 21.0168 25.7208 20.9023 25.4393 20.6984L20.6536 17.2249L19.1602 14.6013L22.775 15.6852L27.5608 19.1587C27.8417 19.3631 27.9994 19.6399 27.9994 19.9286C27.9993 20.2172 27.8416 20.4941 27.5607 20.6984Z" fill="#F8F8F8"/>
</svg>
