<svg width="30" height="27" viewBox="0 0 30 27" fill="none" xmlns="http://www.w3.org/2000/svg">
<path d="M5.01956 0C5.62086 0 6.1385 0.428231 6.25354 1.02012L6.33197 1.67319H28.3291C29.3906 1.67319 30.2376 2.732 29.9396 3.79918L27.1161 13.8404C26.9122 14.562 26.2533 15.0587 25.5056 15.0587H8.92541L9.40645 17.5685H25.5161C26.2115 17.5685 26.771 18.1279 26.771 18.8234C26.771 19.5188 26.2115 20.0782 25.5161 20.0782H8.31888C7.76463 20.0782 7.24699 19.6495 7.13196 19.0586L3.98114 2.50978H1.25489C0.562086 2.50978 0 1.94769 0 1.25489C0 0.562086 0.562086 0 1.25489 0H5.01956ZM14.2221 9.41168H16.5227V11.7123C16.5227 12.2875 16.9462 12.758 17.5685 12.758C18.1436 12.758 18.6142 12.2875 18.6142 11.7123V9.41168H20.9148C21.49 9.41168 21.9606 8.94109 21.9606 8.36593C21.9606 7.74372 21.49 7.32019 20.9148 7.32019H18.6142V5.01956C18.6142 4.44179 18.1436 3.97382 17.5685 3.97382C16.9462 3.97382 16.5227 4.44179 16.5227 5.01956V7.32019H14.2221C13.5999 7.32019 13.1763 7.74372 13.1763 8.36593C13.1763 8.94109 13.5999 9.41168 14.2221 9.41168ZM6.69275 24.2612C6.69275 22.8756 7.81692 21.7514 9.20253 21.7514C10.5881 21.7514 11.7123 22.8756 11.7123 24.2612C11.7123 25.6468 10.5881 26.771 9.20253 26.771C7.81692 26.771 6.69275 25.6468 6.69275 24.2612ZM26.771 24.2612C26.771 25.6468 25.6468 26.771 24.2612 26.771C22.8756 26.771 21.7514 25.6468 21.7514 24.2612C21.7514 22.8756 22.8756 21.7514 24.2612 21.7514C25.6468 21.7514 26.771 22.8756 26.771 24.2612Z" fill="#D81324"/>
</svg>
