<svg width="60" height="58" viewBox="0 0 60 58" fill="none" xmlns="http://www.w3.org/2000/svg">
<path d="M33.3333 8.28571C33.3333 7.18696 32.8651 6.13321 32.0316 5.35627C31.1981 4.57934 30.0676 4.14286 28.8889 4.14286C27.7101 4.14286 26.5797 4.57934 25.7462 5.35627C24.9127 6.13321 24.4444 7.18696 24.4444 8.28571H33.3333ZM20 8.28571C20 6.08821 20.9365 3.9807 22.6035 2.42683C24.2705 0.872957 26.5314 0 28.8889 0C31.2464 0 33.5073 0.872957 35.1743 2.42683C36.8413 3.9807 37.7778 6.08821 37.7778 8.28571H55.5556C56.1449 8.28571 56.7102 8.50395 57.1269 8.89242C57.5437 9.28089 57.7778 9.80777 57.7778 10.3571C57.7778 10.9065 57.5437 11.4334 57.1269 11.8219C56.7102 12.2103 56.1449 12.4286 55.5556 12.4286H53.0489L52.0133 19.5129C50.68 18.8086 49.2622 18.2161 47.7867 17.7521L48.5644 12.4286H9.21333L14.4889 48.4839C14.707 49.9723 15.4962 51.3368 16.7104 52.3247C17.9246 53.3125 19.4817 53.8569 21.0933 53.8571H21.1422C22.5378 55.4314 24.1511 56.8234 25.9422 58H21.0933C18.4067 58 15.8112 57.0925 13.7871 55.4458C11.7631 53.799 10.4477 51.5244 10.0844 49.0431L4.72889 12.4286H2.22222C1.63285 12.4286 1.06762 12.2103 0.650874 11.8219C0.234126 11.4334 0 10.9065 0 10.3571C0 9.80777 0.234126 9.28089 0.650874 8.89242C1.06762 8.50395 1.63285 8.28571 2.22222 8.28571H20ZM40 58C42.6264 58 45.2272 57.5178 47.6537 56.5809C50.0802 55.644 52.285 54.2708 54.1421 52.5396C55.9993 50.8085 57.4725 48.7533 58.4776 46.4915C59.4827 44.2296 60 41.8054 60 39.3571C60 36.9089 59.4827 34.4847 58.4776 32.2228C57.4725 29.961 55.9993 27.9058 54.1421 26.1747C52.285 24.4435 50.0802 23.0703 47.6537 22.1334C45.2272 21.1965 42.6264 20.7143 40 20.7143C34.6957 20.7143 29.6086 22.6784 25.8579 26.1747C22.1071 29.6709 20 34.4128 20 39.3571C20 44.3015 22.1071 49.0434 25.8579 52.5396C29.6086 56.0358 34.6957 58 40 58ZM36.0178 31.5023L32.0311 35.2143H38.8889C40.4939 35.2143 42.0833 35.509 43.5661 36.0815C45.049 36.6541 46.3964 37.4933 47.5313 38.5512C48.6662 39.6091 49.5665 40.865 50.1808 42.2473C50.795 43.6295 51.1111 45.111 51.1111 46.6071V47.6429C51.1111 48.1922 50.877 48.7191 50.4602 49.1076C50.0435 49.496 49.4783 49.7143 48.8889 49.7143C48.2995 49.7143 47.7343 49.496 47.3175 49.1076C46.9008 48.7191 46.6667 48.1922 46.6667 47.6429V46.6071C46.6667 44.6843 45.8472 42.8403 44.3886 41.4806C42.93 40.121 40.9517 39.3571 38.8889 39.3571H32.0311L36.0178 43.0691C36.4351 43.4581 36.6695 43.9856 36.6695 44.5357C36.6695 45.0858 36.4351 45.6133 36.0178 46.0023C35.6005 46.3912 35.0346 46.6098 34.4444 46.6098C33.8543 46.6098 33.2884 46.3912 32.8711 46.0023L25.0844 38.7357C24.879 38.5435 24.7163 38.3155 24.6055 38.0646C24.4948 37.8137 24.4382 37.5449 24.439 37.2736C24.4398 37.0023 24.4981 36.7339 24.6103 36.4836C24.7226 36.2333 24.8867 36.0061 25.0933 35.815L32.8711 28.565C33.0777 28.3724 33.323 28.2196 33.593 28.1154C33.8629 28.0112 34.1523 27.9575 34.4444 27.9575C34.7366 27.9575 35.026 28.0112 35.2959 28.1154C35.5659 28.2196 35.8112 28.3724 36.0178 28.565C36.2244 28.7576 36.3883 28.9862 36.5001 29.2379C36.6119 29.4895 36.6695 29.7592 36.6695 30.0316C36.6695 30.3039 36.6119 30.5736 36.5001 30.8253C36.3883 31.0769 36.2244 31.3055 36.0178 31.4981V31.5023Z" fill="#D81324"/>
</svg>
