<svg width="35" height="33" viewBox="0 0 35 33" fill="none" xmlns="http://www.w3.org/2000/svg">
<path d="M20.125 6.59998C20.125 5.94356 19.8484 5.31404 19.3562 4.84989C18.8639 4.38573 18.1962 4.12498 17.5 4.12498C16.8038 4.12498 16.1361 4.38573 15.6438 4.84989C15.1516 5.31404 14.875 5.94356 14.875 6.59998H20.125ZM13.125 6.59998C13.125 5.50596 13.5859 4.45675 14.4064 3.68316C15.2269 2.90957 16.3397 2.47498 17.5 2.47498C18.6603 2.47498 19.7731 2.90957 20.5936 3.68316C21.4141 4.45675 21.875 5.50596 21.875 6.59998H30.625C30.8571 6.59998 31.0796 6.68689 31.2437 6.84161C31.4078 6.99633 31.5 7.20617 31.5 7.42498C31.5 7.64378 31.4078 7.85362 31.2437 8.00834C31.0796 8.16306 30.8571 8.24998 30.625 8.24998H28.7805L27.9318 15.1734C25.9589 14.66 23.8638 14.753 21.9507 15.4387C20.0376 16.1245 18.4062 17.3674 17.2934 18.9869C16.1805 20.6064 15.6442 22.5182 15.7622 24.4447C15.8802 26.3712 16.6465 28.2121 17.9497 29.7H13.524C12.2359 29.6999 10.9928 29.2533 10.0312 28.4453C9.06966 27.6372 8.4567 26.524 8.309 25.3176L6.2195 8.24998H4.375C4.14294 8.24998 3.92038 8.16306 3.75628 8.00834C3.59219 7.85362 3.5 7.64378 3.5 7.42498C3.5 7.20617 3.59219 6.99633 3.75628 6.84161C3.92038 6.68689 4.14294 6.59998 4.375 6.59998H13.125ZM33.25 23.925C33.25 25.8942 32.4203 27.7828 30.9435 29.1752C29.4666 30.5677 27.4636 31.35 25.375 31.35C23.2864 31.35 21.2834 30.5677 19.8065 29.1752C18.3297 27.7828 17.5 25.8942 17.5 23.925C17.5 21.9557 18.3297 20.0672 19.8065 18.6747C21.2834 17.2823 23.2864 16.5 25.375 16.5C27.4636 16.5 29.4666 17.2823 30.9435 18.6747C32.4203 20.0672 33.25 21.9557 33.25 23.925ZM28.6195 22.0341C28.7838 21.8792 28.8761 21.6691 28.8761 21.45C28.8761 21.2309 28.7838 21.0208 28.6195 20.8659C28.4552 20.711 28.2324 20.6239 28 20.6239C27.7676 20.6239 27.5448 20.711 27.3805 20.8659L25.375 22.7584L23.3695 20.8659C23.2052 20.711 22.9824 20.6239 22.75 20.6239C22.5176 20.6239 22.2948 20.711 22.1305 20.8659C21.9662 21.0208 21.8739 21.2309 21.8739 21.45C21.8739 21.6691 21.9662 21.8792 22.1305 22.0341L24.1378 23.925L22.1305 25.8159C22.0491 25.8926 21.9846 25.9836 21.9406 26.0839C21.8966 26.1841 21.8739 26.2915 21.8739 26.4C21.8739 26.5085 21.8966 26.6159 21.9406 26.7161C21.9846 26.8163 22.0491 26.9074 22.1305 26.9841C22.2119 27.0608 22.3084 27.1216 22.4147 27.1631C22.521 27.2046 22.6349 27.226 22.75 27.226C22.8651 27.226 22.979 27.2046 23.0853 27.1631C23.1916 27.1216 23.2881 27.0608 23.3695 26.9841L25.375 25.0915L27.3805 26.9841C27.4619 27.0608 27.5584 27.1216 27.6647 27.1631C27.771 27.2046 27.8849 27.226 28 27.226C28.1151 27.226 28.229 27.2046 28.3353 27.1631C28.4416 27.1216 28.5381 27.0608 28.6195 26.9841C28.7009 26.9074 28.7654 26.8163 28.8094 26.7161C28.8534 26.6159 28.8761 26.5085 28.8761 26.4C28.8761 26.2915 28.8534 26.1841 28.8094 26.0839C28.7654 25.9836 28.7009 25.8926 28.6195 25.8159L26.6122 23.925L28.6195 22.0341Z" fill="#D81324"/>
</svg>


