<svg width="31" height="30" viewBox="0 0 31 30" fill="none" xmlns="http://www.w3.org/2000/svg">
<path d="M17.125 4.59998C17.125 3.94356 16.8484 3.31404 16.3562 2.84989C15.8639 2.38573 15.1962 2.12498 14.5 2.12498C13.8038 2.12498 13.1361 2.38573 12.6438 2.84989C12.1516 3.31404 11.875 3.94356 11.875 4.59998H17.125ZM10.125 4.59998C10.125 3.50596 10.5859 2.45675 11.4064 1.68316C12.2269 0.909573 13.3397 0.474976 14.5 0.474976C15.6603 0.474976 16.7731 0.909573 17.5936 1.68316C18.4141 2.45675 18.875 3.50596 18.875 4.59998H27.625C27.8571 4.59998 28.0796 4.68689 28.2437 4.84161C28.4078 4.99633 28.5 5.20617 28.5 5.42498C28.5 5.64378 28.4078 5.85362 28.2437 6.00834C28.0796 6.16306 27.8571 6.24998 27.625 6.24998H25.7805L24.9318 13.1734C22.9589 12.66 20.8638 12.753 18.9507 13.4387C17.0376 14.1245 15.4062 15.3674 14.2934 16.9869C13.1805 18.6064 12.6442 20.5182 12.7622 22.4447C12.8802 24.3712 13.6465 26.2121 14.9497 27.7H10.524C9.23592 27.6999 7.99282 27.2533 7.03124 26.4453C6.06966 25.6372 5.4567 24.524 5.309 23.3176L3.2195 6.24998H1.375C1.14294 6.24998 0.920376 6.16306 0.756282 6.00834C0.592187 5.85362 0.5 5.64378 0.5 5.42498C0.5 5.20617 0.592187 4.99633 0.756282 4.84161C0.920376 4.68689 1.14294 4.59998 1.375 4.59998H10.125ZM30.25 21.925C30.25 23.8942 29.4203 25.7828 27.9435 27.1752C26.4666 28.5677 24.4636 29.35 22.375 29.35C20.2864 29.35 18.2834 28.5677 16.8065 27.1752C15.3297 25.7828 14.5 23.8942 14.5 21.925C14.5 19.9557 15.3297 18.0672 16.8065 16.6747C18.2834 15.2823 20.2864 14.5 22.375 14.5C24.4636 14.5 26.4666 15.2823 27.9435 16.6747C29.4203 18.0672 30.25 19.9557 30.25 21.925ZM25.6195 20.0341C25.7838 19.8792 25.8761 19.6691 25.8761 19.45C25.8761 19.2309 25.7838 19.0208 25.6195 18.8659C25.4552 18.711 25.2324 18.6239 25 18.6239C24.7676 18.6239 24.5448 18.711 24.3805 18.8659L22.375 20.7584L20.3695 18.8659C20.2052 18.711 19.9824 18.6239 19.75 18.6239C19.5176 18.6239 19.2948 18.711 19.1305 18.8659C18.9662 19.0208 18.8739 19.2309 18.8739 19.45C18.8739 19.6691 18.9662 19.8792 19.1305 20.0341L21.1378 21.925L19.1305 23.8159C19.0491 23.8926 18.9846 23.9836 18.9406 24.0839C18.8966 24.1841 18.8739 24.2915 18.8739 24.4C18.8739 24.5085 18.8966 24.6159 18.9406 24.7161C18.9846 24.8163 19.0491 24.9074 19.1305 24.9841C19.2119 25.0608 19.3084 25.1216 19.4147 25.1631C19.521 25.2046 19.6349 25.226 19.75 25.226C19.8651 25.226 19.979 25.2046 20.0853 25.1631C20.1916 25.1216 20.2881 25.0608 20.3695 24.9841L22.375 23.0915L24.3805 24.9841C24.4619 25.0608 24.5584 25.1216 24.6647 25.1631C24.771 25.2046 24.8849 25.226 25 25.226C25.1151 25.226 25.229 25.2046 25.3353 25.1631C25.4416 25.1216 25.5381 25.0608 25.6195 24.9841C25.7009 24.9074 25.7654 24.8163 25.8094 24.7161C25.8534 24.6159 25.8761 24.5085 25.8761 24.4C25.8761 24.2915 25.8534 24.1841 25.8094 24.0839C25.7654 23.9836 25.7009 23.8926 25.6195 23.8159L23.6122 21.925L25.6195 20.0341Z" fill="#D81324"/>
</svg>
