<svg width="227" height="193" viewBox="0 0 227 193" fill="none" xmlns="http://www.w3.org/2000/svg">
<g clip-path="url(#clip0_311_2)">
<path d="M208.823 95.4029C209.161 145.642 167.145 186.686 114.938 187.037C62.7302 187.388 20.1656 146.914 19.8275 96.675C19.4894 46.4357 61.5053 5.39241 113.713 5.04102C165.92 4.68964 208.485 45.1637 208.823 95.4029Z" fill="#D9D9D9" fill-opacity="0.09" stroke="white"/>
<g filter="url(#filter0_f_311_2)">
<ellipse cx="113.973" cy="95.7037" rx="87.6384" ry="84.4096" transform="rotate(-0.385625 113.973 95.7037)" fill="#D9D9D9" fill-opacity="0.09"/>
<path d="M201.033 85.9192C201.274 87.9379 201.441 89.9784 201.531 92.0383L200.033 92.1041C200.077 93.1061 200.102 94.1128 200.109 95.124C200.116 96.1351 200.104 97.1421 200.073 98.1446L201.573 98.1902C201.51 100.251 201.37 102.294 201.157 104.315L199.665 104.158C199.452 106.169 199.165 108.16 198.805 110.127L200.281 110.396C199.911 112.42 199.466 114.418 198.95 116.389L197.499 116.009C196.987 117.961 196.403 119.886 195.75 121.78L197.169 122.269C196.5 124.21 195.76 126.119 194.952 127.995L193.574 127.402C192.777 129.252 191.913 131.068 190.983 132.848L192.313 133.542C191.364 135.359 190.35 137.139 189.272 138.878L187.997 138.088C186.937 139.798 185.815 141.468 184.634 143.096L185.848 143.977C184.646 145.634 183.383 147.248 182.064 148.815L180.916 147.849C179.622 149.386 178.271 150.879 176.867 152.323L177.943 153.368C176.517 154.835 175.038 156.253 173.508 157.618L172.509 156.499C171.01 157.837 169.462 159.124 167.867 160.357L168.785 161.544C167.169 162.794 165.505 163.991 163.798 165.13L162.965 163.882C161.295 164.996 159.583 166.055 157.83 167.056L158.574 168.359C156.801 169.371 154.988 170.325 153.137 171.218L152.485 169.867C150.679 170.738 148.836 171.55 146.96 172.301L147.517 173.693C145.623 174.45 143.697 175.145 141.739 175.775L141.279 174.348C139.371 174.962 137.434 175.513 135.469 176L135.83 177.456C133.854 177.945 131.851 178.37 129.824 178.728L129.563 177.251C127.591 177.599 125.595 177.882 123.578 178.098L123.738 179.59C121.718 179.807 119.677 179.957 117.617 180.04L117.557 178.541C116.553 178.581 115.544 178.605 114.531 178.611C113.517 178.618 112.508 178.608 111.503 178.582L111.464 180.081C109.403 180.026 107.36 179.903 105.337 179.714L105.477 178.22C103.457 178.031 101.458 177.775 99.4813 177.453L99.2406 178.934C97.2084 178.603 95.1999 178.206 93.2176 177.743L93.5586 176.282C91.5875 175.822 89.6428 175.296 87.7272 174.708L87.2868 176.142C85.3206 175.538 83.3845 174.869 81.4811 174.138L82.0192 172.738C80.1329 172.013 78.2795 171.226 76.4616 170.379L75.8281 171.738C73.9655 170.87 72.1396 169.941 70.3532 168.953L71.0794 167.64C69.3134 166.663 67.5868 165.627 65.9024 164.536L65.0866 165.794C63.3638 164.678 61.6844 163.504 60.0513 162.276L60.953 161.077C59.3417 159.865 57.7764 158.599 56.26 157.282L55.2763 158.414C53.728 157.069 52.2296 155.671 50.7844 154.224L51.8458 153.164C50.4226 151.739 49.052 150.265 47.7368 148.745L46.6024 149.727C45.2618 148.177 43.9778 146.581 42.7533 144.94L43.9554 144.043C42.7524 142.431 41.6081 140.776 40.5254 139.08L39.2612 139.887C38.16 138.163 37.1214 136.397 36.1485 134.593L37.4687 133.881C36.5155 132.114 35.6264 130.309 34.8046 128.47L33.4351 129.082C32.6019 127.218 31.8364 125.318 31.1417 123.387L32.5531 122.879C31.8749 120.993 31.2653 119.076 30.7273 117.131L29.2816 117.531C28.7384 115.567 28.2669 113.575 27.8699 111.557L29.3417 111.267C28.9558 109.306 28.6416 107.319 28.4019 105.31L26.9124 105.488C26.6715 103.47 26.5045 101.429 26.414 99.3691L27.9125 99.3033C27.8685 98.3013 27.8429 97.2946 27.8361 96.2834C27.8293 95.2723 27.8414 94.2653 27.8719 93.2628L26.3726 93.2172C26.4353 91.1563 26.5749 89.1137 26.7886 87.092L28.2803 87.2496C28.493 85.238 28.7804 83.2474 29.1399 81.2807L27.6643 81.011C28.0341 78.9879 28.4788 76.9894 28.9955 75.0183L30.4465 75.3986C30.9582 73.4465 31.5419 71.5217 32.1947 69.6269L30.7765 69.1383C31.4452 67.1976 32.1851 65.288 32.9931 63.4123L34.3707 64.0058C35.1677 62.1559 36.0324 60.3394 36.9617 58.5594L35.6321 57.8651C36.5807 56.0483 37.5954 54.2688 38.6732 52.5296L39.9482 53.3198C41.0079 51.6098 42.1299 49.9394 43.3111 48.3114L42.097 47.4305C43.2993 45.7735 44.5618 44.1599 45.8814 42.5926L47.0288 43.5587C48.3234 42.0211 49.6741 40.5288 51.0779 39.0846L50.0024 38.0391C51.428 36.5725 52.9074 35.1549 54.4375 33.7891L55.4364 34.9081C56.9349 33.5706 58.483 32.2836 60.0778 31.05L59.16 29.8635C60.7765 28.6132 62.44 27.4168 64.1476 26.2773L64.9802 27.525C66.6498 26.4109 68.3623 25.3521 70.115 24.3513L69.3712 23.0487C71.1441 22.0363 72.9574 21.0823 74.8081 20.1895L75.4598 21.5406C77.2661 20.6692 79.1088 19.8571 80.9851 19.1069L80.4283 17.7141C82.3216 16.9571 84.2486 16.2622 86.2065 15.6319L86.6661 17.0598C88.5736 16.4457 90.5111 15.8941 92.4758 15.4074L92.1152 13.9514C94.0911 13.462 96.0941 13.0371 98.1216 12.6795L98.3822 14.1566C100.354 13.8088 102.35 13.5254 104.367 13.309L104.207 11.8176C106.227 11.6008 108.268 11.4501 110.328 11.3678L110.388 12.8666C111.392 12.8264 112.401 12.8028 113.415 12.796C114.428 12.7892 115.437 12.7992 116.442 12.8258L116.481 11.3264C118.542 11.381 120.585 11.5042 122.608 11.6937L122.468 13.1872C124.488 13.3764 126.487 13.6329 128.464 13.9542L128.705 12.4736C130.737 12.804 132.745 13.2018 134.728 13.6646L134.387 15.1253C136.358 15.5855 138.302 16.111 140.218 16.6993L140.658 15.2654C142.625 15.8693 144.561 16.5382 146.464 17.2697L145.926 18.6698C147.812 19.3947 149.666 20.1819 151.484 21.0289L152.117 19.6692C153.98 20.537 155.806 21.4665 157.592 22.4549L156.866 23.7674C158.632 24.7445 160.358 25.7802 162.043 26.8718L162.859 25.6129C164.581 26.7294 166.261 27.9032 167.894 29.1317L166.992 30.3304C168.603 31.5424 170.169 32.8085 171.685 34.1257L172.669 32.9933C174.217 34.3384 175.715 35.736 177.161 37.1833L176.099 38.2432C177.523 39.6683 178.893 41.1423 180.208 42.6623L181.343 41.6809C182.683 43.2302 183.967 44.8267 185.192 46.4674L183.99 47.3645C185.193 48.9765 186.337 50.6317 187.42 52.3272L188.684 51.52C189.785 53.2445 190.824 55.0101 191.797 56.814L190.476 57.5261C191.43 59.2935 192.319 61.0982 193.141 62.9372L194.51 62.3252C195.343 64.1898 196.109 66.0893 196.803 68.0208L195.392 68.5285C196.07 70.4143 196.68 72.3311 197.218 74.2761L198.664 73.8763C199.207 75.8403 199.678 77.8326 200.075 79.8506L198.603 80.1401C198.989 82.1018 199.304 84.0883 199.543 86.097L201.033 85.9192Z" stroke="white" stroke-width="3" stroke-dasharray="6 6"/>
</g>
<path d="M194.098 95.1644C194.385 137.758 158.762 172.561 114.492 172.859C70.222 173.157 34.1338 138.837 33.8471 96.243C33.5604 53.649 69.1834 18.8466 113.453 18.5486C157.723 18.2507 193.811 52.5704 194.098 95.1644Z" fill="#D9D9D9" fill-opacity="0.09" stroke="white"/>
<mask id="path-5-inside-1_311_2" fill="white">
<path fill-rule="evenodd" clip-rule="evenodd" d="M223.617 143.375L167.153 143.755L167.409 181.755L223.902 181.375L204.285 163.235L223.617 143.375ZM223.617 143.375L223.646 143.375L223.647 143.402L223.617 143.375Z"/>
</mask>
<path fill-rule="evenodd" clip-rule="evenodd" d="M223.617 143.375L167.153 143.755L167.409 181.755L223.902 181.375L204.285 163.235L223.617 143.375ZM223.617 143.375L223.646 143.375L223.647 143.402L223.617 143.375Z" fill="white"/>
<path d="M167.153 143.755L167.14 141.755L165.14 141.769L165.153 143.768L167.153 143.755ZM167.409 181.755L165.409 181.769L165.422 183.769L167.422 183.755L167.409 181.755ZM223.902 181.375L223.916 183.375L228.974 183.341L225.26 179.906L223.902 181.375ZM204.285 163.235L202.852 161.84L201.42 163.311L202.927 164.704L204.285 163.235ZM223.646 143.375L225.646 143.361L225.633 141.361L223.633 141.375L223.646 143.375ZM223.647 143.402L222.289 144.87L225.678 148.004L225.647 143.389L223.647 143.402ZM167.167 145.755L223.631 145.375L223.604 141.375L167.14 141.755L167.167 145.755ZM169.409 181.742L169.153 143.742L165.153 143.768L165.409 181.769L169.409 181.742ZM223.889 179.375L167.395 179.755L167.422 183.755L223.916 183.375L223.889 179.375ZM225.26 179.906L205.643 161.767L202.927 164.704L222.544 182.843L225.26 179.906ZM205.718 164.63L225.051 144.77L222.184 141.98L202.852 161.84L205.718 164.63ZM223.631 145.375L223.66 145.375L223.633 141.375L223.604 141.375L223.631 145.375ZM221.646 143.388L221.647 143.415L225.647 143.389L225.646 143.361L221.646 143.388ZM222.26 144.843L222.289 144.87L225.004 141.934L224.975 141.907L222.26 144.843Z" fill="black" mask="url(#path-5-inside-1_311_2)"/>
<mask id="path-7-inside-2_311_2" fill="white">
<path fill-rule="evenodd" clip-rule="evenodd" d="M1.68049 144.869L58.1448 144.489L58.4005 182.489L1.90719 182.869L21.2786 164.467L1.68049 144.869ZM1.68049 144.869L1.65143 144.869L1.65161 144.896L1.68049 144.869Z"/>
</mask>
<path fill-rule="evenodd" clip-rule="evenodd" d="M1.68049 144.869L58.1448 144.489L58.4005 182.489L1.90719 182.869L21.2786 164.467L1.68049 144.869ZM1.68049 144.869L1.65143 144.869L1.65161 144.896L1.68049 144.869Z" fill="white"/>
<path d="M58.1448 144.489L58.1313 142.489L60.1313 142.475L60.1447 144.475L58.1448 144.489ZM1.68049 144.869L1.66703 142.869L1.68049 144.869ZM58.4005 182.489L60.4005 182.475L60.414 184.475L58.414 184.489L58.4005 182.489ZM1.90719 182.869L1.92065 184.869L-3.13787 184.903L0.529732 181.419L1.90719 182.869ZM21.2786 164.467L22.6928 163.053L24.1438 164.504L22.656 165.917L21.2786 164.467ZM1.65143 144.869L-0.348525 144.882L-0.361986 142.882L1.63797 142.869L1.65143 144.869ZM1.65161 144.896L3.02908 146.346L-0.317277 149.525L-0.348341 144.91L1.65161 144.896ZM58.1582 146.489L1.69395 146.869L1.66703 142.869L58.1313 142.489L58.1582 146.489ZM56.4006 182.502L56.1448 144.502L60.1447 144.475L60.4005 182.475L56.4006 182.502ZM1.89373 180.869L58.3871 180.489L58.414 184.489L1.92065 184.869L1.89373 180.869ZM0.529732 181.419L19.9011 163.017L22.656 165.917L3.28465 184.319L0.529732 181.419ZM19.8644 165.881L0.266266 146.283L3.09472 143.454L22.6928 163.053L19.8644 165.881ZM1.69395 146.869L1.66489 146.869L1.63797 142.869L1.66703 142.869L1.69395 146.869ZM3.65138 144.855L3.65157 144.883L-0.348341 144.91L-0.348525 144.882L3.65138 144.855ZM3.05796 146.319L3.02908 146.346L0.274151 143.446L0.303031 143.419L3.05796 146.319Z" fill="black" mask="url(#path-7-inside-2_311_2)"/>
<path d="M57.8405 145.426L43.372 150.169L58.3431 153.063L57.8405 145.426Z" fill="white" stroke="black" stroke-width="2"/>
<path d="M167.341 144.708L181.872 149.256L166.942 152.351L167.341 144.708Z" fill="white" stroke="black" stroke-width="2"/>
<rect x="40.0917" y="151.039" width="144.409" height="36.001" transform="rotate(-0.385625 40.0917 151.039)" fill="white" stroke="black" stroke-width="2"/>
<path d="M47.8826 174.988L47.8778 174.275L49.956 173.997L49.8814 162.913L49.3834 162.917C47.8925 162.927 46.8448 162.999 46.2402 163.133L45.9929 165.567L45.1043 165.573L45.0796 161.911L57.804 161.825L57.8286 165.487L56.9302 165.493L56.6502 163.063C56.109 162.95 55.0409 162.898 53.4459 162.909L52.9674 162.912L53.0419 173.976L55.1237 174.226L55.1285 174.939L47.8826 174.988ZM62.0755 174.013L63.0829 174.241L63.0873 174.885L58.2632 174.918L58.2588 174.273L59.2533 174.032L59.2034 166.611L58.2643 166.383L58.26 165.738L62.0197 165.713L62.0755 174.013ZM59.0783 162.529C59.0754 162.106 59.2195 161.75 59.5105 161.462C59.8081 161.173 60.1619 161.028 60.5721 161.025C60.9887 161.022 61.3413 161.166 61.6297 161.457C61.9246 161.742 62.0734 162.092 62.0762 162.509C62.079 162.919 61.9382 163.275 61.6537 163.576C61.3692 163.871 61.0154 164.02 60.5922 164.023C60.1756 164.026 59.8198 163.885 59.5249 163.601C59.23 163.31 59.0811 162.952 59.0783 162.529ZM68.1508 165.447C69.3943 165.438 70.2949 165.764 70.8528 166.425C71.4171 167.085 71.704 168.115 71.7134 169.515L71.7188 170.316L66.9045 170.348L66.9055 170.504C66.9121 171.474 66.9948 172.164 67.1538 172.573C67.3129 172.982 67.5689 173.293 67.9219 173.505C68.2749 173.718 68.7573 173.822 69.3693 173.818C69.9422 173.814 70.6642 173.715 71.5353 173.52L71.5404 174.272C71.1838 174.489 70.7195 174.671 70.1475 174.818C69.5821 174.959 69.0292 175.031 68.4888 175.035C66.9849 175.045 65.869 174.662 65.1411 173.885C64.4197 173.102 64.0535 171.887 64.0424 170.24C64.0316 168.639 64.3653 167.442 65.0436 166.649C65.7284 165.857 66.7641 165.456 68.1508 165.447ZM68.05 166.434C67.6594 166.436 67.3679 166.65 67.1754 167.075C66.9895 167.499 66.9001 168.248 66.9074 169.322L69.0362 169.308C69.0303 168.436 68.9969 167.824 68.936 167.473C68.875 167.115 68.7723 166.852 68.6279 166.684C68.4901 166.516 68.2974 166.432 68.05 166.434ZM76.4583 166.416L77.1201 166.07C78.0284 165.595 78.8471 165.355 79.5762 165.35C81.2689 165.339 82.1213 166.235 82.1334 168.038L82.1727 173.878L83.0923 174.106L83.0966 174.751L78.5362 174.781L78.5318 174.137L79.3505 173.897L79.3138 168.438C79.3101 167.891 79.1901 167.466 78.9536 167.161C78.7237 166.857 78.3939 166.706 77.9642 166.709C77.4695 166.712 76.9754 166.826 76.4821 167.051L76.5283 173.916L77.3697 174.145L77.3741 174.789L72.8136 174.82L72.8093 174.175L73.7061 173.935L73.6562 166.513L72.7562 166.285L72.7518 165.64L76.3162 165.616L76.4583 166.416ZM90.5636 174.183C90.2007 174.42 89.9218 174.578 89.727 174.657C89.5322 174.73 89.3112 174.79 89.0641 174.838C88.817 174.885 88.5438 174.909 88.2443 174.911C86.8901 174.921 85.8784 174.54 85.2092 173.77C84.5399 172.993 84.1998 171.797 84.1889 170.183C84.1782 168.594 84.5249 167.384 85.229 166.553C85.9395 165.721 86.9719 165.301 88.326 165.292C89.0356 165.287 89.7524 165.37 90.4762 165.541C90.4357 165.326 90.4128 164.822 90.4074 164.027L90.3918 161.703L89.4527 161.475L89.4484 160.831L93.208 160.805L93.2955 173.803L94.3029 174.031L94.3073 174.675L90.7722 174.699L90.5636 174.183ZM87.0497 170.085C87.0579 171.303 87.2171 172.233 87.5274 172.875C87.8377 173.511 88.2793 173.827 88.8522 173.823C89.373 173.82 89.9124 173.676 90.4704 173.392L90.4239 166.479C89.9152 166.345 89.4004 166.28 88.8796 166.284C88.2937 166.288 87.8401 166.613 87.5189 167.26C87.1977 167.9 87.0413 168.842 87.0497 170.085ZM99.8104 165.253C102.109 165.238 103.263 166.076 103.275 167.769L103.315 173.736L104.234 173.964L104.239 174.608L100.86 174.631L100.64 173.93C100.135 174.278 99.6774 174.515 99.2681 174.642C98.8588 174.775 98.4459 174.843 98.0292 174.846C96.1347 174.858 95.1813 173.953 95.1691 172.13C95.1644 171.44 95.3007 170.889 95.5779 170.477C95.855 170.059 96.2566 169.75 96.7826 169.551C97.3086 169.346 98.1379 169.226 99.2705 169.193L100.462 169.155L100.453 167.817C100.445 166.711 99.989 166.16 99.0841 166.166C98.5372 166.17 97.9264 166.343 97.2516 166.687L96.8882 167.832L96.2437 167.836L96.2288 165.619C97.2108 165.463 97.9328 165.364 98.3948 165.321C98.8568 165.279 99.3286 165.257 99.8104 165.253ZM100.468 170.024L99.6474 170.059C99.0161 170.089 98.5778 170.258 98.3325 170.566C98.0936 170.874 97.9765 171.369 97.9811 172.053C97.9848 172.606 98.0852 173.012 98.2823 173.272C98.4794 173.531 98.7341 173.659 99.0466 173.657C99.4893 173.654 99.9703 173.537 100.49 173.306L100.468 170.024ZM113.716 167.982C113.73 170.059 114.023 171.541 114.595 172.429C115.174 173.311 116.082 173.747 117.319 173.739C118.55 173.731 119.445 173.279 120.005 172.383C120.572 171.487 120.849 170.004 120.835 167.934C120.821 165.87 120.525 164.407 119.946 163.545C119.374 162.683 118.472 162.257 117.242 162.265C116.005 162.273 115.103 162.712 114.536 163.582C113.975 164.452 113.702 165.918 113.716 167.982ZM110.474 168.004C110.444 163.551 112.698 161.309 117.235 161.278C119.475 161.263 121.171 161.818 122.325 162.943C123.478 164.062 124.062 165.718 124.077 167.912C124.092 170.132 123.524 171.819 122.373 172.973C121.221 174.12 119.539 174.701 117.326 174.716C115.119 174.731 113.429 174.172 112.256 173.041C111.083 171.909 110.489 170.23 110.474 168.004ZM129.289 166.061L129.951 165.714C130.859 165.24 131.678 165 132.407 164.995C134.1 164.983 134.952 165.879 134.964 167.683L135.004 173.522L135.923 173.751L135.927 174.395L131.367 174.426L131.363 173.781L132.181 173.541L132.145 168.083C132.141 167.536 132.021 167.11 131.784 166.806C131.555 166.501 131.225 166.35 130.795 166.353C130.3 166.357 129.806 166.471 129.313 166.695L129.359 173.56L130.201 173.789L130.205 174.434L125.644 174.464L125.64 173.82L126.537 173.579L126.487 166.158L125.587 165.929L125.583 165.285L129.147 165.261L129.289 166.061ZM148.275 161.929L146.256 162.196L146.33 173.29L148.996 173.272C150.383 173.263 151.401 173.191 152.052 173.056L152.834 170.326L153.713 170.32L153.368 174.278L141.582 174.357L141.577 173.644L143.255 173.369L143.18 162.217L141.508 161.975L141.503 161.262L148.271 161.216L148.275 161.929ZM158.831 173.362L159.839 173.59L159.843 174.234L155.019 174.267L155.014 173.622L156.009 173.381L155.959 165.959L155.02 165.731L155.016 165.087L158.775 165.062L158.831 173.362ZM155.834 161.878C155.831 161.455 155.975 161.099 156.266 160.811C156.564 160.522 156.918 160.377 157.328 160.374C157.744 160.371 158.097 160.515 158.385 160.806C158.68 161.091 158.829 161.441 158.832 161.858C158.835 162.268 158.694 162.624 158.409 162.925C158.125 163.22 157.771 163.369 157.348 163.372C156.931 163.375 156.575 163.234 156.281 162.949C155.986 162.658 155.837 162.301 155.834 161.878ZM164.327 165.825L164.989 165.479C165.897 165.004 166.716 164.764 167.445 164.759C169.138 164.748 169.99 165.644 170.003 167.447L170.042 173.287L170.961 173.515L170.966 174.159L166.405 174.19L166.401 173.546L167.22 173.306L167.183 167.847C167.179 167.3 167.059 166.874 166.823 166.57C166.593 166.265 166.263 166.115 165.833 166.118C165.339 166.121 164.845 166.235 164.351 166.46L164.397 173.325L165.239 173.553L165.243 174.198L160.683 174.229L160.678 173.584L161.575 173.344L161.525 165.922L160.625 165.694L160.621 165.049L164.185 165.025L164.327 165.825ZM176.039 164.721C177.282 164.712 178.183 165.038 178.741 165.699C179.305 166.359 179.592 167.389 179.602 168.789L179.607 169.589L174.793 169.622L174.794 169.778C174.8 170.748 174.883 171.438 175.042 171.847C175.201 172.256 175.457 172.567 175.81 172.779C176.163 172.992 176.646 173.096 177.257 173.092C177.83 173.088 178.552 172.988 179.424 172.794L179.429 173.546C179.072 173.763 178.608 173.945 178.036 174.092C177.47 174.233 176.917 174.305 176.377 174.308C174.873 174.319 173.757 173.935 173.029 173.159C172.308 172.376 171.942 171.161 171.931 169.514C171.92 167.913 172.254 166.716 172.932 165.923C173.617 165.131 174.652 164.73 176.039 164.721ZM175.938 165.708C175.548 165.71 175.256 165.924 175.064 166.348C174.878 166.773 174.788 167.522 174.796 168.596L176.924 168.582C176.919 167.71 176.885 167.098 176.824 166.747C176.763 166.389 176.66 166.126 176.516 165.958C176.378 165.789 176.186 165.706 175.938 165.708Z" fill="black"/>
<path d="M104.634 78.7368C104.623 77.1102 105.619 75.5434 107.404 74.3811C109.188 73.2189 111.614 72.5563 114.148 72.5393C116.682 72.5222 119.117 73.152 120.917 74.2902C122.717 75.4283 123.734 76.9815 123.745 78.6082C123.765 83.7203 120.606 87.8295 114.253 90.939L114.291 90.9387L76.2997 104.774C74.8129 105.315 73.5763 106.101 72.7182 107.05C71.8601 107.999 71.4117 109.076 71.4195 110.171L71.4365 112.694C71.4475 114.321 72.4647 115.874 74.2644 117.012C76.0641 118.15 78.4989 118.78 81.0331 118.763L147.921 118.313C150.455 118.296 152.881 117.633 154.665 116.471C156.449 115.309 157.446 113.742 157.435 112.116L157.418 109.592C157.411 108.497 156.948 107.426 156.077 106.489C155.206 105.552 153.959 104.783 152.465 104.261L114.291 90.9387" stroke="white" stroke-width="7" stroke-linecap="round" stroke-linejoin="round"/>
<path d="M50.6256 93.7932C53.9147 94.2664 56.3296 94.156 57.8706 93.4621C59.4027 92.7564 60.3089 91.424 60.5894 89.4648C60.8683 87.5159 60.3657 85.9913 59.0815 84.891C57.7989 83.7803 55.5182 82.9892 52.2394 82.5175C48.971 82.0472 46.5862 82.1672 45.085 82.8773C43.5853 83.5772 42.696 84.9015 42.4171 86.8504C42.1367 88.8096 42.6172 90.3416 43.8586 91.4463C45.1015 92.5407 47.3572 93.323 50.6256 93.7932ZM49.8906 98.9284C42.8382 97.9138 39.8264 93.8129 40.855 86.6257C41.3627 83.0785 42.6435 80.5265 44.6972 78.9698C46.7407 77.4116 49.4998 76.8824 52.9744 77.3823C56.4903 77.8881 59.0242 79.1893 60.5761 81.2858C62.1178 83.3809 62.6377 86.1814 62.1359 89.6873C61.6356 93.1829 60.3512 95.7238 58.2827 97.31C56.2142 98.8962 53.4168 99.4357 49.8906 98.9284Z" fill="white"/>
<path d="M57.8706 93.4621L58.2816 94.3741L58.2893 94.3706L57.8706 93.4621ZM59.0815 84.891L58.4274 85.6469L58.4313 85.6503L59.0815 84.891ZM45.085 82.8773L45.5083 83.7837L45.513 83.7815L45.085 82.8773ZM43.8586 91.4463L43.1943 92.1933L43.1982 92.1967L43.8586 91.4463ZM44.6972 78.9698L45.3015 79.767L45.3038 79.7653L44.6972 78.9698ZM60.5761 81.2858L61.3813 80.6934L61.3796 80.6911L60.5761 81.2858ZM50.4839 94.7831C53.8104 95.2617 56.4677 95.1909 58.2816 94.3741L57.4596 92.5501C56.1916 93.1211 54.0189 93.2711 50.7673 92.8033L50.4839 94.7831ZM58.2893 94.3706C60.1867 93.4967 61.2604 91.8346 61.5792 89.6072L59.5995 89.3224C59.3575 91.0134 58.6187 92.0162 57.4518 92.5537L58.2893 94.3706ZM61.5792 89.6072C61.8972 87.3848 61.3223 85.4945 59.7318 84.1317L58.4313 85.6503C59.4091 86.4881 59.8393 87.647 59.5995 89.3224L61.5792 89.6072ZM59.7357 84.135C58.225 82.8269 55.6989 82.0049 52.3811 81.5275L52.0977 83.5074C55.3374 83.9735 57.3728 84.7337 58.4274 85.6469L59.7357 84.135ZM52.3811 81.5275C49.0773 81.0522 46.4395 81.13 44.657 81.9732L45.513 83.7815C46.7329 83.2044 48.8646 83.0422 52.0977 83.5074L52.3811 81.5275ZM44.6617 81.971C42.795 82.8421 41.7435 84.4982 41.4273 86.708L43.4069 86.9928C43.6485 85.3049 44.3756 84.3123 45.5083 83.7837L44.6617 81.971ZM41.4273 86.708C41.1098 88.9261 41.6513 90.8203 43.1943 92.1933L44.5229 90.6993C43.583 89.8629 43.1635 88.6931 43.4069 86.9928L41.4273 86.708ZM43.1982 92.1967C44.6729 93.4953 47.1811 94.3079 50.4839 94.7831L50.7673 92.8033C47.5332 92.338 45.5301 91.5861 44.519 90.6958L43.1982 92.1967ZM50.0323 97.9384C46.6635 97.4538 44.4402 96.2593 43.1481 94.5C41.8532 92.7368 41.3517 90.2137 41.8448 86.7681L39.8652 86.4833C39.3297 90.2248 39.8198 93.3458 41.5367 95.6835C43.2565 98.0251 46.0654 99.3883 49.7489 99.9183L50.0323 97.9384ZM41.8448 86.7681C42.33 83.3783 43.528 81.1113 45.3015 79.767L44.093 78.1726C41.7589 79.9417 40.3954 82.7787 39.8652 86.4833L41.8448 86.7681ZM45.3038 79.7653C47.0655 78.4219 49.5239 77.8962 52.8327 78.3722L53.1161 76.3924C49.4756 75.8686 46.4159 76.4012 44.0907 78.1743L45.3038 79.7653ZM52.8327 78.3722C56.1825 78.8541 58.4305 80.0674 59.7727 81.8806L61.3796 80.6911C59.6179 78.3112 56.798 76.9221 53.1161 76.3924L52.8327 78.3722ZM59.771 81.8783C61.1078 83.6949 61.6245 86.2025 61.1461 89.5449L63.1257 89.8297C63.6509 86.1603 63.1278 83.0668 61.3813 80.6934L59.771 81.8783ZM61.1461 89.5449C60.6694 92.8757 59.4705 95.1385 57.674 96.5162L58.8914 98.1039C61.2319 96.3091 62.6018 93.4902 63.1257 89.8297L61.1461 89.5449ZM57.674 96.5162C55.8878 97.8859 53.3924 98.4218 50.0323 97.9384L49.7489 99.9183C53.4413 100.449 56.5406 99.9065 58.8914 98.1039L57.674 96.5162Z" fill="black"/>
<path d="M53.1354 56.7194L51.8112 59.6986L66.9948 68.892L69.1996 65.2404C70.3464 63.341 71.0999 61.8915 71.4601 60.8918L68.3933 57.5371L69.1201 56.3333L74.2264 60.1192L64.4786 76.264L63.5029 75.6732L64.5311 73.154L49.2672 63.9121L47.5387 65.9889L46.563 65.3982L52.1597 56.1286L53.1354 56.7194Z" fill="white"/>
<path d="M53.1354 56.7194L54.0486 57.1266L54.407 56.3203L53.6523 55.8633L53.1354 56.7194ZM51.8112 59.6986L50.898 59.2914L50.5396 60.0977L51.2943 60.5547L51.8112 59.6986ZM66.9948 68.892L66.478 69.7481L67.3334 70.266L67.8503 69.41L66.9948 68.892ZM71.4601 60.8918L72.4003 61.2318L72.6053 60.6629L72.1972 60.2166L71.4601 60.8918ZM68.3933 57.5371L67.5379 57.0192L67.151 57.6599L67.6562 58.2124L68.3933 57.5371ZM69.1201 56.3333L69.7147 55.5294L68.8324 54.8752L68.2647 55.8154L69.1201 56.3333ZM74.2264 60.1192L75.0819 60.6371L75.5525 59.8576L74.821 59.3152L74.2264 60.1192ZM64.4786 76.264L63.9617 77.12L64.8171 77.638L65.334 76.7819L64.4786 76.264ZM63.5029 75.6732L62.5776 75.2943L62.2544 76.0863L62.986 76.5293L63.5029 75.6732ZM64.5311 73.154L65.4563 73.5329L65.7796 72.7409L65.0479 72.298L64.5311 73.154ZM49.2672 63.9121L49.7841 63.056L49.0489 62.6109L48.4992 63.2713L49.2672 63.9121ZM47.5387 65.9889L47.0218 66.845L47.757 67.2901L48.3067 66.6297L47.5387 65.9889ZM46.563 65.3982L45.7075 64.8802L45.1907 65.7363L46.0461 66.2542L46.563 65.3982ZM52.1597 56.1286L52.6766 55.2726L51.8212 54.7546L51.3043 55.6107L52.1597 56.1286ZM52.2223 56.3122L50.898 59.2914L52.7243 60.1058L54.0486 57.1266L52.2223 56.3122ZM51.2943 60.5547L66.478 69.7481L67.5117 68.036L52.328 58.8426L51.2943 60.5547ZM67.8503 69.41L70.055 65.7583L68.3442 64.7224L66.1394 68.3741L67.8503 69.41ZM70.055 65.7583C71.2075 63.8496 72.0047 62.3297 72.4003 61.2318L70.52 60.5519C70.1951 61.4533 69.4854 62.8324 68.3442 64.7224L70.055 65.7583ZM72.1972 60.2166L69.1304 56.8619L67.6562 58.2124L70.723 61.5671L72.1972 60.2166ZM69.2487 58.0551L69.9756 56.8512L68.2647 55.8154L67.5379 57.0192L69.2487 58.0551ZM68.5256 57.1372L73.6319 60.9231L74.821 59.3152L69.7147 55.5294L68.5256 57.1372ZM73.371 59.6012L63.6231 75.746L65.334 76.7819L75.0819 60.6371L73.371 59.6012ZM64.9954 75.4079L64.0197 74.8171L62.986 76.5293L63.9617 77.12L64.9954 75.4079ZM64.4281 76.0521L65.4563 73.5329L63.6058 72.7751L62.5776 75.2943L64.4281 76.0521ZM65.0479 72.298L49.7841 63.056L48.7503 64.7681L64.0142 74.0101L65.0479 72.298ZM48.4992 63.2713L46.7707 65.3482L48.3067 66.6297L50.0352 64.5528L48.4992 63.2713ZM48.0555 65.1329L47.0798 64.5421L46.0461 66.2542L47.0218 66.845L48.0555 65.1329ZM47.4184 65.9161L53.0151 56.6466L51.3043 55.6107L45.7075 64.8802L47.4184 65.9161ZM51.6428 56.9847L52.6185 57.5755L53.6523 55.8633L52.6766 55.2726L51.6428 56.9847Z" fill="black"/>
<path d="M83.4213 39.7322C81.5609 37.3523 79.7631 35.949 78.028 35.5223C76.2865 35.0874 74.4362 35.638 72.4769 37.1739L71.5669 37.8873L82.316 51.6375C83.1543 51.0862 83.8932 50.5599 84.5326 50.0586C85.5983 49.2232 86.259 48.3347 86.5146 47.3931C86.7783 46.4451 86.672 45.3703 86.1955 44.1688C85.7125 42.9591 84.7878 41.4802 83.4213 39.7322ZM72.3652 35.0775C75.3246 32.7575 78.0354 31.7178 80.4976 31.9583C82.9615 32.1842 85.2713 33.6758 87.4269 36.4333C89.6402 39.2645 90.6127 41.9039 90.3442 44.3512C90.0694 46.7903 88.5629 49.0831 85.8248 51.2296L80.265 55.5087L77.4368 57.7259L76.7343 56.8272L78.5895 54.8368L67.5998 40.7788L65.2346 42.1168L64.5321 41.2182L72.3652 35.0775Z" fill="white"/>
<path d="M78.028 35.5223L77.7859 36.4932L77.7894 36.4941L78.028 35.5223ZM71.5669 37.8873L70.951 37.0994L70.164 37.7164L70.7799 38.5042L71.5669 37.8873ZM82.316 51.6375L81.529 52.2545L82.0957 52.9794L82.8644 52.4739L82.316 51.6375ZM86.5146 47.3931L85.5519 47.1248L85.5502 47.1309L86.5146 47.3931ZM86.1955 44.1688L87.1243 43.7992L87.1234 43.7971L86.1955 44.1688ZM80.4976 31.9583L80.4002 32.9542L80.4062 32.9548L80.4976 31.9583ZM90.3442 44.3512L91.3373 44.463L91.3376 44.4601L90.3442 44.3512ZM85.8248 51.2296L86.4337 52.0229L86.4407 52.0174L85.8248 51.2296ZM80.265 55.5087L79.6562 54.7153L79.6491 54.7208L80.265 55.5087ZM77.4368 57.7259L76.6498 58.3428L77.2656 59.1307L78.0526 58.5137L77.4368 57.7259ZM76.7343 56.8272L76.0038 56.1446L75.4205 56.7704L75.9473 57.4442L76.7343 56.8272ZM78.5895 54.8368L79.32 55.5194L79.9032 54.8936L79.3765 54.2198L78.5895 54.8368ZM67.5998 40.7788L68.3868 40.1618L67.8571 39.4842L67.1085 39.9076L67.5998 40.7788ZM65.2346 42.1168L64.4476 42.7338L64.9774 43.4115L65.7259 42.988L65.2346 42.1168ZM64.5321 41.2182L63.9162 40.4304L63.1292 41.0473L63.7451 41.8351L64.5321 41.2182ZM84.2083 39.1152C82.2964 36.6695 80.3244 35.0565 78.2667 34.5505L77.7894 36.4941C79.2017 36.8414 80.8253 38.035 82.6343 40.3492L84.2083 39.1152ZM78.2701 34.5514C76.1256 34.0158 73.9634 34.7379 71.861 36.3861L73.0927 37.9618C74.9089 36.538 76.4475 36.159 77.7859 36.4932L78.2701 34.5514ZM71.861 36.3861L70.951 37.0994L72.1828 38.6751L73.0927 37.9618L71.861 36.3861ZM70.7799 38.5042L81.529 52.2545L83.103 51.0206L72.3539 37.2703L70.7799 38.5042ZM82.8644 52.4739C83.7207 51.9107 84.4829 51.3683 85.1485 50.8465L83.9167 49.2708C83.3035 49.7516 82.5879 50.2617 81.7676 50.8012L82.8644 52.4739ZM85.1485 50.8465C86.3194 49.9286 87.1485 48.8724 87.4789 47.6553L85.5502 47.1309C85.3694 47.797 84.8773 48.5178 83.9167 49.2708L85.1485 50.8465ZM87.4772 47.6614C87.8157 46.445 87.6561 45.1402 87.1243 43.7992L85.2667 44.5384C85.6879 45.6005 85.741 46.4452 85.5519 47.1248L87.4772 47.6614ZM87.1234 43.7971C86.5892 42.4589 85.5983 40.8933 84.2083 39.1152L82.6343 40.3492C83.9773 42.0671 84.8359 43.4593 85.2675 44.5405L87.1234 43.7971ZM72.9811 35.8654C75.8407 33.6236 78.299 32.749 80.4002 32.9542L80.5949 30.9624C77.7718 30.6866 74.8085 31.8915 71.7493 34.2897L72.9811 35.8654ZM80.4062 32.9548C82.4984 33.1466 84.5824 34.4182 86.6399 37.0502L88.2139 35.8163C85.9602 32.9334 83.4247 31.2218 80.589 30.9618L80.4062 32.9548ZM86.6399 37.0502C88.7661 39.7701 89.58 42.1533 89.3509 44.2422L91.3376 44.4601C91.6453 41.6544 90.5143 38.759 88.2139 35.8163L86.6399 37.0502ZM89.3512 44.2393C89.1171 46.3165 87.8253 48.3906 85.2089 50.4417L86.4407 52.0174C89.3005 49.7755 91.0216 47.2641 91.3373 44.463L89.3512 44.2393ZM85.2159 50.4363L79.6562 54.7154L80.8739 56.302L86.4336 52.0229L85.2159 50.4363ZM79.6491 54.7208L76.8209 56.938L78.0526 58.5137L80.8809 56.2965L79.6491 54.7208ZM78.2237 57.1089L77.5213 56.2103L75.9473 57.4442L76.6498 58.3428L78.2237 57.1089ZM77.4647 57.5099L79.32 55.5194L77.859 54.1542L76.0038 56.1446L77.4647 57.5099ZM79.3765 54.2198L68.3868 40.1618L66.8128 41.3958L77.8025 55.4537L79.3765 54.2198ZM67.1085 39.9076L64.7432 41.2456L65.7259 42.988L68.0912 41.65L67.1085 39.9076ZM66.0216 41.4999L65.3191 40.6012L63.7451 41.8351L64.4476 42.7338L66.0216 41.4999ZM65.148 42.006L72.9811 35.8654L71.7493 34.2897L63.9162 40.4304L65.148 42.006Z" fill="black"/>
<path d="M108.732 37.2316L110.107 37.2148L110.849 40.5653C111.292 41.0704 111.959 41.4893 112.848 41.8222C113.737 42.1551 114.656 42.3158 115.604 42.3042C118.593 42.2677 120.073 41.0203 120.045 38.5621C120.036 37.7914 119.742 37.1439 119.163 36.6196C118.595 36.0953 117.698 35.6323 116.475 35.2305C114.677 34.6587 113.379 34.1954 112.584 33.8405C111.798 33.4751 111.132 33.0457 110.584 32.5523C110.037 32.059 109.598 31.4602 109.267 30.7558C108.935 30.0411 108.764 29.1629 108.752 28.1213C108.73 26.2777 109.339 24.8691 110.578 23.8955C111.827 22.9114 113.66 22.4046 116.076 22.3751C117.826 22.3537 119.766 22.5539 121.896 22.9758L121.954 27.9599L120.563 27.9769L119.827 25.1107C118.756 24.3529 117.512 23.9826 116.095 24C114.814 24.0156 113.832 24.2672 113.151 24.7548C112.468 25.2319 112.133 25.96 112.144 26.9391C112.153 27.637 112.446 28.2324 113.025 28.7254C113.603 29.2079 114.504 29.6344 115.727 30.0049C118.121 30.7569 119.764 31.4192 120.657 31.9917C121.559 32.5536 122.249 33.2588 122.728 34.1071C123.207 34.9555 123.453 35.9578 123.466 37.114C123.517 41.5616 120.924 43.8174 115.684 43.8815C114.487 43.8961 113.261 43.8069 112.009 43.6139C110.767 43.4311 109.697 43.1786 108.797 42.8562L108.732 37.2316Z" fill="white"/>
<path d="M108.732 37.2316L108.72 36.2317L107.721 36.2439L107.732 37.2438L108.732 37.2316ZM110.107 37.2148L111.083 36.998L110.908 36.2049L110.095 36.2148L110.107 37.2148ZM110.849 40.5653L109.872 40.7821L109.928 41.0326L110.097 41.2254L110.849 40.5653ZM119.163 36.6196L118.485 37.355L118.492 37.3612L119.163 36.6196ZM116.475 35.2305L116.788 34.2804L116.779 34.2775L116.475 35.2305ZM112.584 33.8405L112.161 34.7473L112.169 34.7506L112.176 34.7539L112.584 33.8405ZM110.584 32.5523L109.915 33.2954L110.584 32.5523ZM109.267 30.7558L108.359 31.1768L108.361 31.1817L109.267 30.7558ZM110.578 23.8955L111.195 24.6816L111.196 24.6809L110.578 23.8955ZM121.896 22.9758L122.896 22.9636L122.887 22.1525L122.091 21.9949L121.896 22.9758ZM121.954 27.9599L121.965 28.9598L122.965 28.9476L122.954 27.9477L121.954 27.9599ZM120.563 27.9769L119.595 28.2263L119.79 28.9864L120.575 28.9768L120.563 27.9769ZM119.827 25.1107L120.795 24.8613L120.704 24.5059L120.405 24.2941L119.827 25.1107ZM113.151 24.7548L113.723 25.5741L113.732 25.5681L113.151 24.7548ZM113.025 28.7254L112.376 29.4868L112.384 29.4935L113.025 28.7254ZM115.727 30.0049L116.027 29.0508L116.017 29.0478L115.727 30.0049ZM120.657 31.9917L120.116 32.8335L120.128 32.8407L120.657 31.9917ZM112.009 43.6139L112.162 42.6255L112.155 42.6245L112.009 43.6139ZM108.797 42.8562L107.797 42.8684L107.805 43.5633L108.459 43.7976L108.797 42.8562ZM108.744 38.2315L110.118 38.2147L110.095 36.2148L108.72 36.2317L108.744 38.2315ZM109.131 37.4316L109.872 40.7821L111.825 40.3485L111.083 36.998L109.131 37.4316ZM110.097 41.2254C110.685 41.8947 111.513 42.3906 112.497 42.7588L113.199 40.8857C112.404 40.5881 111.9 40.246 111.601 39.9053L110.097 41.2254ZM112.497 42.7588C113.502 43.135 114.543 43.3172 115.615 43.3041L115.592 41.3043C114.768 41.3143 113.973 41.1753 113.199 40.8857L112.497 42.7588ZM115.615 43.3041C117.222 43.2845 118.609 42.9412 119.6 42.1059C120.629 41.2392 121.062 39.9903 121.045 38.5499L119.045 38.5744C119.057 39.5921 118.764 40.196 118.312 40.5767C117.823 40.9887 116.975 41.2874 115.592 41.3043L115.615 43.3041ZM121.045 38.5499C121.033 37.4966 120.617 36.5862 119.835 35.8781L118.492 37.3612C118.868 37.7016 119.039 38.0861 119.045 38.5744L121.045 38.5499ZM119.841 35.8843C119.12 35.2193 118.068 34.7009 116.788 34.2804L116.162 36.1807C117.329 36.5637 118.069 36.9713 118.485 37.355L119.841 35.8843ZM116.779 34.2775C114.985 33.7071 113.733 33.2578 112.991 32.9271L112.176 34.7539C113.026 35.133 114.369 35.6103 116.171 36.1835L116.779 34.2775ZM113.006 32.9337C112.295 32.6031 111.716 32.2256 111.254 31.8093L109.915 33.2954C110.547 33.8658 111.301 34.347 112.161 34.7473L113.006 32.9337ZM111.254 31.8093C110.811 31.4099 110.449 30.9208 110.172 30.3299L108.361 31.1817C108.746 31.9995 109.263 32.7081 109.915 33.2954L111.254 31.8093ZM110.174 30.3349C109.918 29.7825 109.762 29.0527 109.752 28.1091L107.752 28.1335C107.765 29.2731 107.953 30.2997 108.359 31.1768L110.174 30.3349ZM109.752 28.1091C109.733 26.5166 110.245 25.4287 111.195 24.6816L109.96 23.1094C108.433 24.3094 107.727 26.0387 107.752 28.1335L109.752 28.1091ZM111.196 24.6809C112.203 23.888 113.783 23.4032 116.088 23.375L116.065 21.3751C113.537 21.406 111.451 21.9349 109.959 23.1102L111.196 24.6809ZM116.088 23.375C117.754 23.3546 119.624 23.5453 121.701 23.9568L122.091 21.9949C119.909 21.5626 117.898 21.3527 116.065 21.3751L116.088 23.375ZM120.896 22.9881L120.954 27.9721L122.954 27.9477L122.896 22.9636L120.896 22.9881ZM121.942 26.96L120.552 26.977L120.575 28.9768L121.965 28.9598L121.942 26.96ZM121.532 27.7275L120.795 24.8613L118.858 25.3601L119.595 28.2263L121.532 27.7275ZM120.405 24.2941C119.147 23.4047 117.693 22.9803 116.084 23L116.107 24.9999C117.33 24.9849 118.364 25.301 119.249 25.9272L120.405 24.2941ZM116.084 23C114.699 23.017 113.484 23.2872 112.569 23.9414L113.732 25.5681C114.18 25.2473 114.929 25.0143 116.107 24.9999L116.084 23ZM112.578 23.9355C111.574 24.6378 111.13 25.7089 111.145 26.9513L113.144 26.9269C113.136 26.2111 113.363 25.826 113.723 25.5741L112.578 23.9355ZM111.145 26.9513C111.156 27.9659 111.6 28.8255 112.376 29.4868L113.673 27.9639C113.292 27.6393 113.149 27.308 113.144 26.9269L111.145 26.9513ZM112.384 29.4935C113.113 30.1016 114.162 30.576 115.437 30.962L116.017 29.0478C114.846 28.6929 114.093 28.3142 113.665 27.9572L112.384 29.4935ZM115.427 30.959C117.82 31.7107 119.348 32.3403 120.116 32.8334L121.197 31.1499C120.181 30.4981 118.422 29.8032 116.027 29.0508L115.427 30.959ZM120.128 32.8407C120.901 33.3223 121.468 33.9095 121.857 34.5989L123.599 33.6153C123.031 32.608 122.217 31.7848 121.186 31.1427L120.128 32.8407ZM121.857 34.5989C122.239 35.2757 122.454 36.1068 122.466 37.1262L124.466 37.1017C124.451 35.8088 124.174 34.6353 123.599 33.6153L121.857 34.5989ZM122.466 37.1262C122.489 39.1491 121.917 40.5055 120.903 41.3872C119.858 42.2959 118.175 42.8509 115.673 42.8815L115.696 44.8814C118.433 44.8479 120.666 44.2431 122.215 42.8959C123.795 41.5218 124.494 39.5265 124.466 37.1017L122.466 37.1262ZM115.673 42.8815C114.533 42.8955 113.363 42.8107 112.162 42.6255L111.856 44.6022C113.16 44.8032 114.44 44.8968 115.696 44.8814L115.673 42.8815ZM112.155 42.6245C110.96 42.4486 109.957 42.2092 109.135 41.9148L108.459 43.7976C109.437 44.1479 110.575 44.4137 111.863 44.6032L112.155 42.6245ZM109.797 42.844L109.732 37.2194L107.732 37.2438L107.797 42.8684L109.797 42.844Z" fill="black"/>
<path d="M136.868 48.3759C136.302 48.5782 135.592 48.6424 134.736 48.5686C133.89 48.4982 133.053 48.3207 132.226 48.0363C129.753 47.1865 128.106 45.9541 127.284 44.3389C126.473 42.7271 126.488 40.6947 127.331 38.2418C127.856 36.7149 128.58 35.5044 129.504 34.6103C130.442 33.7099 131.526 33.1517 132.756 32.9358C133.991 32.7101 135.292 32.8325 136.662 33.3031C138.041 33.7771 139.484 34.4658 140.991 35.3692L139.579 39.4771L138.515 39.1115L138.732 36.46C138.482 36.0987 138.211 35.8128 137.92 35.6026C137.629 35.3924 137.217 35.1958 136.685 35.013C136.104 34.8133 135.497 34.8636 134.865 35.1641C134.234 35.4646 133.639 35.9928 133.082 36.7485C132.538 37.4979 132.065 38.4587 131.662 39.6309C130.981 41.611 130.801 43.1296 131.12 44.1867C131.45 45.2472 132.284 46.0077 133.624 46.4681C134.984 46.9353 136.195 47.192 137.259 47.2381L136.868 48.3759Z" fill="white"/>
<path d="M136.868 48.3759L137.205 49.3174L137.657 49.1555L137.813 48.7009L136.868 48.3759ZM134.736 48.5686L134.822 47.5723L134.819 47.572L134.736 48.5686ZM127.284 44.3389L126.391 44.7887L126.393 44.7923L127.284 44.3389ZM129.504 34.6103L128.812 33.8892L128.809 33.8917L129.504 34.6103ZM132.756 32.9358L132.929 33.9208L132.936 33.9195L132.756 32.9358ZM140.991 35.3692L141.936 35.6942L142.2 34.9281L141.505 34.5115L140.991 35.3692ZM139.579 39.4771L139.254 40.4228L140.2 40.7479L140.525 39.8022L139.579 39.4771ZM138.515 39.1115L137.518 39.0298L137.455 39.8045L138.19 40.0572L138.515 39.1115ZM138.732 36.46L139.729 36.5417L139.758 36.185L139.554 35.8907L138.732 36.46ZM133.082 36.7485L132.277 36.1552L132.273 36.1611L133.082 36.7485ZM131.12 44.1867L130.163 44.4761L130.165 44.4834L131.12 44.1867ZM137.259 47.2381L138.204 47.5631L138.639 46.297L137.302 46.239L137.259 47.2381ZM136.531 47.4344C136.146 47.572 135.592 47.6387 134.822 47.5723L134.65 49.5649C135.592 49.6461 136.459 49.5844 137.205 49.3174L136.531 47.4344ZM134.819 47.572C134.058 47.5087 133.303 47.349 132.551 47.0906L131.901 48.982C132.804 49.2925 133.722 49.4876 134.653 49.5651L134.819 47.572ZM132.551 47.0906C130.215 46.2879 128.836 45.1839 128.176 43.8854L126.393 44.7923C127.376 46.7242 129.291 48.0852 131.901 48.982L132.551 47.0906ZM128.178 43.889C127.532 42.6065 127.483 40.8773 128.277 38.5668L126.385 37.9168C125.493 40.5121 125.414 42.8476 126.391 44.7887L128.178 43.889ZM128.277 38.5668C128.763 37.1518 129.414 36.089 130.2 35.329L128.809 33.8917C127.746 34.9198 126.949 36.2779 126.385 37.9168L128.277 38.5668ZM130.197 35.3315C130.997 34.5628 131.902 34.1009 132.929 33.9208L132.584 31.9508C131.149 32.2025 129.886 32.8569 128.812 33.8892L130.197 35.3315ZM132.936 33.9195C133.977 33.7291 135.104 33.8253 136.337 34.2488L136.987 32.3574C135.48 31.8397 134.004 31.691 132.577 31.9521L132.936 33.9195ZM136.337 34.2488C137.638 34.6961 139.018 35.3523 140.477 36.2269L141.505 34.5115C139.95 33.5793 138.444 32.8581 136.987 32.3574L136.337 34.2488ZM140.045 35.0442L138.633 39.1521L140.525 39.8022L141.936 35.6942L140.045 35.0442ZM139.904 38.5314L138.84 38.1658L138.19 40.0572L139.254 40.4228L139.904 38.5314ZM139.512 39.1932L139.729 36.5417L137.736 36.3784L137.518 39.0298L139.512 39.1932ZM139.554 35.8907C139.253 35.4561 138.907 35.0815 138.505 34.7918L137.335 36.4134C137.516 36.5442 137.711 36.7412 137.91 37.0294L139.554 35.8907ZM138.505 34.7918C138.103 34.5011 137.589 34.2662 137.01 34.0673L136.36 35.9587C136.846 36.1255 137.155 36.2836 137.335 36.4134L138.505 34.7918ZM137.01 34.0673C136.147 33.7706 135.269 33.8651 134.436 34.261L135.295 36.0672C135.726 35.8622 136.061 35.856 136.36 35.9587L137.01 34.0673ZM134.436 34.261C133.613 34.6523 132.9 35.3102 132.277 36.1552L133.887 37.3419C134.378 36.6753 134.854 36.277 135.295 36.0672L134.436 34.261ZM132.273 36.1611C131.654 37.0126 131.141 38.0695 130.716 39.3059L132.607 39.956C132.988 38.8478 133.421 37.9831 133.891 37.336L132.273 36.1611ZM130.716 39.3059C130.019 41.3325 129.749 43.1053 130.163 44.4761L132.077 43.8973C131.853 43.1539 131.943 41.8895 132.607 39.956L130.716 39.3059ZM130.165 44.4834C130.615 45.9305 131.75 46.8814 133.299 47.4138L133.949 45.5224C132.819 45.134 132.285 44.5639 132.075 43.89L130.165 44.4834ZM133.299 47.4138C134.72 47.9021 136.029 48.1857 137.215 48.2372L137.302 46.239C136.361 46.1983 135.247 45.9686 133.949 45.5224L133.299 47.4138ZM136.313 46.9131L135.922 48.0509L137.813 48.7009L138.204 47.5631L136.313 46.9131Z" fill="black"/>
<path d="M154.925 42.5908C154.488 43.1213 153.947 43.7284 153.302 44.412L154.482 44.6762C156.1 45.039 157.363 45.595 158.271 46.3442C160.359 48.068 160.486 50.0432 158.651 52.2697L152.708 59.4795L153.602 60.7038L152.946 61.4995L147.318 56.8551L147.974 56.0593L149.225 56.6054L154.78 49.8657C155.337 49.1905 155.626 48.5447 155.649 47.9282C155.679 47.3184 155.429 46.7947 154.898 46.3571C154.288 45.8532 153.565 45.486 152.729 45.2554L145.742 53.7312L146.54 54.8758L145.884 55.6716L140.256 51.0272L140.912 50.2314L142.259 50.857L154.593 35.8947L153.675 34.6506L154.331 33.8548L158.97 37.6838L154.925 42.5908Z" fill="white"/>
<path d="M153.302 44.412L152.575 43.7256L151.37 45.004L153.084 45.3881L153.302 44.412ZM154.482 44.6762L154.7 43.7002L154.7 43.7001L154.482 44.6762ZM152.708 59.4795L151.936 58.8431L151.442 59.4424L151.9 60.0697L152.708 59.4795ZM153.602 60.7038L154.373 61.3403L154.867 60.7409L154.409 60.1136L153.602 60.7038ZM152.946 61.4995L152.31 62.2711L153.081 62.9076L153.717 62.136L152.946 61.4995ZM147.318 56.8551L146.547 56.2186L145.911 56.9902L146.682 57.6267L147.318 56.8551ZM147.974 56.0593L148.374 55.1425L147.682 54.8408L147.203 55.4228L147.974 56.0593ZM149.225 56.6054L148.825 57.5222L149.516 57.8239L149.996 57.2419L149.225 56.6054ZM155.649 47.9282L154.65 47.8786L154.649 47.8921L155.649 47.9282ZM152.729 45.2554L152.994 44.2911L152.37 44.1187L151.958 44.6189L152.729 45.2554ZM145.742 53.7312L144.971 53.0947L144.488 53.6805L144.922 54.3033L145.742 53.7312ZM146.54 54.8758L147.311 55.5123L147.794 54.9266L147.36 54.3037L146.54 54.8758ZM145.884 55.6716L145.248 56.4432L146.019 57.0797L146.655 56.3081L145.884 55.6716ZM140.256 51.0272L139.485 50.3907L138.849 51.1623L139.62 51.7988L140.256 51.0272ZM140.912 50.2314L141.333 49.3241L140.632 48.9988L140.141 49.5949L140.912 50.2314ZM142.259 50.857L141.838 51.7643L142.539 52.0897L143.03 51.4935L142.259 50.857ZM154.593 35.8947L155.364 36.5312L155.861 35.9287L155.397 35.3005L154.593 35.8947ZM153.675 34.6506L152.903 34.0141L152.407 34.6166L152.87 35.2448L153.675 34.6506ZM154.331 33.8548L154.967 33.0832L154.195 32.4467L153.559 33.2184L154.331 33.8548ZM158.97 37.6838L159.742 38.3203L160.378 37.5486L159.606 36.9121L158.97 37.6838ZM154.154 41.9543C153.735 42.4628 153.21 43.0527 152.575 43.7256L154.03 45.0984C154.684 44.404 155.241 43.7798 155.697 43.2273L154.154 41.9543ZM153.084 45.3881L154.264 45.6523L154.7 43.7001L153.521 43.4359L153.084 45.3881ZM154.263 45.6523C155.787 45.9939 156.887 46.499 157.634 47.1158L158.907 45.5726C157.838 44.691 156.413 44.0841 154.7 43.7002L154.263 45.6523ZM157.634 47.1158C158.547 47.869 158.895 48.5605 158.935 49.1824C158.976 49.8207 158.709 50.6271 157.88 51.6332L159.422 52.9061C160.428 51.6857 161.016 50.3914 160.93 49.0544C160.843 47.7012 160.083 46.5433 158.907 45.5726L157.634 47.1158ZM157.88 51.6332L151.936 58.8431L153.479 60.116L159.422 52.9061L157.88 51.6332ZM151.9 60.0697L152.795 61.2939L154.409 60.1136L153.515 58.8894L151.9 60.0697ZM152.831 60.0673L152.175 60.863L153.717 62.136L154.373 61.3403L152.831 60.0673ZM153.582 60.7279L147.954 56.0834L146.682 57.6267L152.31 62.2711L153.582 60.7279ZM148.089 57.4916L148.745 56.6958L147.203 55.4228L146.547 56.2186L148.089 57.4916ZM147.574 56.9761L148.825 57.5222L149.624 55.6886L148.374 55.1425L147.574 56.9761ZM149.996 57.2419L155.552 50.5022L154.009 49.2292L148.453 55.9689L149.996 57.2419ZM155.552 50.5022C156.191 49.7265 156.615 48.8759 156.648 47.9643L154.649 47.8921C154.638 48.2135 154.483 48.6545 154.009 49.2292L155.552 50.5022ZM156.647 47.9779C156.695 47.0093 156.273 46.195 155.535 45.5855L154.262 47.1287C154.584 47.3944 154.662 47.6275 154.65 47.8786L156.647 47.9779ZM155.535 45.5855C154.805 44.9838 153.953 44.5555 152.994 44.2911L152.463 46.2196C153.176 46.4164 153.77 46.7227 154.262 47.1287L155.535 45.5855ZM151.958 44.6189L144.971 53.0947L146.513 54.3677L153.5 45.8919L151.958 44.6189ZM144.922 54.3033L145.72 55.448L147.36 54.3037L146.562 53.1591L144.922 54.3033ZM145.768 54.2394L145.113 55.0351L146.655 56.3081L147.311 55.5123L145.768 54.2394ZM146.52 54.9L140.892 50.2555L139.62 51.7988L145.248 56.4432L146.52 54.9ZM141.027 51.6637L141.683 50.8679L140.141 49.5949L139.485 50.3907L141.027 51.6637ZM140.491 51.1387L141.838 51.7643L142.68 49.9497L141.333 49.3241L140.491 51.1387ZM143.03 51.4935L155.364 36.5312L153.822 35.2582L141.488 50.2205L143.03 51.4935ZM155.397 35.3005L154.479 34.0564L152.87 35.2448L153.789 36.4889L155.397 35.3005ZM154.446 35.2871L155.102 34.4913L153.559 33.2184L152.903 34.0141L154.446 35.2871ZM153.694 34.6265L158.334 38.4554L159.606 36.9121L154.967 33.0832L153.694 34.6265ZM158.199 37.0473L154.154 41.9543L155.697 43.2273L159.742 38.3203L158.199 37.0473Z" fill="black"/>
<path d="M168.165 70.8165C165.897 72.1596 163.933 72.6635 162.271 72.3282C160.614 72.0019 159.195 70.8387 158.013 68.8387C156.869 66.9015 156.563 65.1337 157.095 63.5354C157.635 61.9317 159.026 60.4663 161.267 59.1392C163.498 57.8174 165.435 57.3178 167.078 57.6404C168.735 57.9667 170.148 59.1209 171.319 61.103C172.501 63.103 172.807 64.9012 172.237 66.4975C171.682 68.0975 170.325 69.5371 168.165 70.8165ZM165.836 66.8747C167.808 65.7068 169.083 64.752 169.661 64.0101C170.253 63.2718 170.337 62.544 169.914 61.8265C169.506 61.1359 168.859 60.8711 167.974 61.032C167.089 61.1929 165.63 61.8759 163.595 63.081C161.525 64.3072 160.202 65.2725 159.626 65.9769C159.055 66.6902 158.971 67.3877 159.374 68.0693C159.792 68.7779 160.474 69.0519 161.42 68.8913C162.375 68.7254 163.847 68.0532 165.836 66.8747Z" fill="white"/>
<path d="M162.271 72.3282L162.469 71.3474L162.464 71.3465L162.271 72.3282ZM157.095 63.5354L156.148 63.2158L156.146 63.2197L157.095 63.5354ZM167.078 57.6404L167.271 56.6587L167.271 56.6586L167.078 57.6404ZM172.237 66.4975L171.296 66.1615L171.293 66.1697L172.237 66.4975ZM169.661 64.0101L168.882 63.3838L168.877 63.3894L168.873 63.395L169.661 64.0101ZM159.626 65.9769L158.852 65.3434L158.846 65.3518L159.626 65.9769ZM161.42 68.8913L161.587 69.8777L161.59 69.8771L161.42 68.8913ZM167.656 69.9555C165.488 71.2395 163.785 71.6129 162.469 71.3474L162.073 73.309C164.08 73.714 166.306 73.0796 168.673 71.6775L167.656 69.9555ZM162.464 71.3465C161.18 71.0936 159.967 70.1795 158.874 68.3291L157.153 69.3483C158.423 71.498 160.048 72.9102 162.077 73.3099L162.464 71.3465ZM158.874 68.3291C157.824 66.5526 157.631 65.0899 158.043 63.8511L156.146 63.2197C155.495 65.1775 155.914 67.2504 157.153 69.3483L158.874 68.3291ZM158.042 63.8549C158.474 62.5733 159.634 61.2683 161.775 60.0002L160.758 58.2782C158.418 59.6644 156.797 61.2901 156.148 63.2158L158.042 63.8549ZM161.775 60.0002C163.907 58.7376 165.585 58.3669 166.885 58.6222L167.271 56.6586C165.286 56.2686 163.09 56.8971 160.758 58.2782L161.775 60.0002ZM166.884 58.6221C168.171 58.8755 169.378 59.7829 170.459 61.6126L172.18 60.5933C170.919 58.4588 169.298 57.0579 167.271 56.6587L166.884 58.6221ZM170.459 61.6126C171.548 63.457 171.732 64.9389 171.296 66.1616L173.179 66.8334C173.881 64.8634 173.453 62.749 172.18 60.5933L170.459 61.6126ZM171.293 66.1697C170.846 67.4598 169.708 68.7402 167.656 69.9555L168.673 71.6775C170.942 70.334 172.519 68.7351 173.181 66.8252L171.293 66.1697ZM166.345 67.7357C168.313 66.5701 169.742 65.5327 170.449 64.6251L168.873 63.395C168.424 63.9713 167.303 64.8436 165.328 66.0137L166.345 67.7357ZM170.44 64.6363C170.82 64.1624 171.092 63.6237 171.161 63.0251C171.232 62.4148 171.081 61.8364 170.774 61.3169L169.053 62.3361C169.17 62.534 169.189 62.6784 169.175 62.7959C169.161 62.9252 169.094 63.1195 168.882 63.3838L170.44 64.6363ZM170.774 61.3169C170.476 60.8128 170.056 60.4108 169.502 60.1839C168.958 59.9612 168.373 59.9427 167.796 60.0476L168.152 62.0164C168.461 61.9604 168.641 61.9938 168.744 62.0359C168.837 62.0739 168.943 62.1495 169.053 62.3361L170.774 61.3169ZM167.796 60.0476C166.712 60.2448 165.109 61.0222 163.087 62.22L164.104 63.942C166.151 62.7296 167.467 62.141 168.152 62.0164L167.796 60.0476ZM163.087 62.22C161.029 63.4385 159.556 64.4835 158.853 65.3434L160.399 66.6104C160.848 66.0616 162.021 65.1759 164.104 63.942L163.087 62.22ZM158.846 65.3518C158.478 65.811 158.213 66.334 158.142 66.9158C158.071 67.5106 158.215 68.0742 158.513 68.579L160.234 67.5597C160.13 67.3829 160.115 67.2569 160.127 67.1542C160.141 67.0385 160.203 66.8561 160.406 66.6021L158.846 65.3518ZM158.513 68.579C158.821 69.0991 159.257 69.506 159.827 69.7348C160.383 69.9584 160.986 69.9796 161.587 69.8777L161.253 67.9049C160.908 67.9635 160.697 67.928 160.572 67.8777C160.459 67.8324 160.345 67.7481 160.234 67.5597L158.513 68.579ZM161.59 69.8771C162.744 69.6766 164.356 68.9137 166.345 67.7357L165.328 66.0137C163.337 67.1927 162.005 67.7742 161.25 67.9055L161.59 69.8771Z" fill="black"/>
<path d="M171.428 88.5416C168.816 88.889 166.811 88.5829 165.413 87.6234C164.017 86.6742 163.167 85.048 162.864 82.745C162.571 80.5142 162.982 78.7677 164.098 77.5054C165.224 76.2418 167.077 75.4383 169.659 75.095C172.23 74.7531 174.208 75.0522 175.592 75.9925C176.988 76.9417 177.837 78.5575 178.137 80.8399C178.44 83.143 178.017 84.9174 176.868 86.1631C175.73 87.4178 173.917 88.2106 171.428 88.5416ZM170.831 84.0026C173.103 83.7005 174.65 83.3213 175.472 82.8652C176.306 82.4179 176.669 81.7812 176.56 80.955C176.456 80.1598 175.965 79.6629 175.088 79.4643C174.211 79.2657 172.6 79.3223 170.256 79.634C167.871 79.9512 166.275 80.321 165.469 80.7435C164.665 81.1762 164.314 81.7851 164.417 82.57C164.525 83.3858 165.045 83.9051 165.978 84.1278C166.921 84.3492 168.539 84.3074 170.831 84.0026Z" fill="white"/>
<path d="M165.413 87.6234L165.98 86.7985L165.976 86.7959L165.413 87.6234ZM164.098 77.5054L163.352 76.8404L163.349 76.8435L164.098 77.5054ZM175.592 75.9925L176.155 75.165L176.155 75.1648L175.592 75.9925ZM176.868 86.1631L176.133 85.4853L176.127 85.4917L176.868 86.1631ZM175.472 82.8652L175.001 81.9837L174.995 81.9871L174.988 81.9906L175.472 82.8652ZM165.469 80.7435L165.006 79.8576L164.997 79.8627L165.469 80.7435ZM165.978 84.1278L165.744 85.1007L165.748 85.1016L165.978 84.1278ZM171.298 87.5501C168.8 87.8823 167.087 87.5585 165.98 86.7985L164.847 88.4483C166.535 89.6074 168.831 89.8957 171.559 89.533L171.298 87.5501ZM165.976 86.7959C164.894 86.0601 164.136 84.7439 163.856 82.6131L161.873 82.8768C162.199 85.3521 163.14 87.2882 164.851 88.4508L165.976 86.7959ZM163.856 82.6131C163.586 80.5674 163.981 79.1457 164.846 78.1674L163.349 76.8435C161.982 78.3896 161.555 80.4609 161.873 82.8768L163.856 82.6131ZM164.844 78.1704C165.743 77.1605 167.323 76.4145 169.789 76.0864L169.528 74.1035C166.832 74.4621 164.704 75.323 163.352 76.8404L164.844 78.1704ZM169.789 76.0864C172.245 75.7598 173.934 76.0762 175.03 76.8202L176.155 75.1648C174.481 74.0282 172.215 73.7463 169.528 74.1035L169.789 76.0864ZM175.029 76.8199C176.114 77.5571 176.868 78.8649 177.146 80.9718L179.128 80.7081C178.805 78.2501 177.863 76.3263 176.155 75.165L175.029 76.8199ZM177.146 80.9718C177.425 83.0956 177.014 84.5311 176.133 85.4853L177.602 86.841C179.02 85.3036 179.455 83.1904 179.128 80.7081L177.146 80.9718ZM176.127 85.4917C175.21 86.5033 173.662 87.2357 171.298 87.5501L171.559 89.533C174.172 89.1855 176.25 88.3323 177.608 86.8346L176.127 85.4917ZM170.961 84.994C173.229 84.6925 174.95 84.2978 175.956 83.7397L174.988 81.9906C174.349 82.3449 172.976 82.7084 170.7 83.0111L170.961 84.994ZM175.944 83.7466C176.479 83.4595 176.94 83.0702 177.238 82.5466C177.543 82.0127 177.63 81.4215 177.552 80.8232L175.569 81.0869C175.599 81.3148 175.56 81.455 175.501 81.5579C175.437 81.6709 175.3 81.8236 175.001 81.9837L175.944 83.7466ZM177.552 80.8232C177.475 80.2428 177.246 79.708 176.825 79.2824C176.412 78.8645 175.881 78.6182 175.31 78.4888L174.866 80.4398C175.171 80.509 175.324 80.6104 175.402 80.6894C175.473 80.7607 175.541 80.872 175.569 81.0869L177.552 80.8232ZM175.31 78.4888C174.235 78.2454 172.455 78.3327 170.126 78.6425L170.387 80.6254C172.745 80.3118 174.186 80.286 174.866 80.4398L175.31 78.4888ZM170.126 78.6425C167.755 78.9578 165.99 79.3419 165.006 79.8577L165.932 81.6293C166.56 81.3001 167.986 80.9446 170.387 80.6254L170.126 78.6425ZM164.997 79.8627C164.479 80.1413 164.029 80.5184 163.737 81.0262C163.438 81.5454 163.35 82.1205 163.426 82.7018L165.409 82.4381C165.382 82.2345 165.417 82.1127 165.469 82.0231C165.527 81.9221 165.655 81.7784 165.942 81.6242L164.997 79.8627ZM163.426 82.7018C163.505 83.3007 163.747 83.8461 164.181 84.2797C164.606 84.7036 165.152 84.9593 165.744 85.1007L166.211 83.155C165.87 83.0736 165.69 82.9584 165.595 82.863C165.509 82.7772 165.437 82.655 165.409 82.4381L163.426 82.7018ZM165.748 85.1016C166.888 85.369 168.67 85.2988 170.961 84.994L170.7 83.0111C168.407 83.3161 166.954 83.3293 166.207 83.1541L165.748 85.1016Z" fill="black"/>
<path d="M167.287 98.2816L166.896 99.8878L165.865 99.8792L165.939 92.1608L166.97 92.1694L167.33 93.7662L186.72 93.9278L187.11 92.431L188.141 92.4396L188.083 98.455L167.287 98.2816Z" fill="white"/>
<path d="M167.287 98.2816L167.296 97.2817L166.503 97.2751L166.315 98.0466L167.287 98.2816ZM166.896 99.8878L166.887 100.888L167.681 100.894L167.868 100.123L166.896 99.8878ZM165.865 99.8792L164.865 99.8709L164.856 100.871L165.856 100.879L165.865 99.8792ZM165.939 92.1608L165.949 91.1609L164.949 91.1525L164.939 92.1525L165.939 92.1608ZM166.97 92.1694L167.946 91.9485L167.772 91.1761L166.98 91.1695L166.97 92.1694ZM167.33 93.7662L166.355 93.9871L166.529 94.7596L167.321 94.7662L167.33 93.7662ZM186.72 93.9278L186.711 94.9278L187.491 94.9343L187.688 94.1784L186.72 93.9278ZM187.11 92.431L187.119 91.4311L186.338 91.4245L186.142 92.1804L187.11 92.431ZM188.141 92.4396L189.141 92.4479L189.15 91.448L188.15 91.4397L188.141 92.4396ZM188.083 98.455L188.073 99.4549L189.073 99.4632L189.083 98.4633L188.083 98.455ZM166.315 98.0466L165.925 99.6528L167.868 100.123L168.259 98.5167L166.315 98.0466ZM166.906 98.8879L165.875 98.8793L165.856 100.879L166.887 100.888L166.906 98.8879ZM166.865 99.8875L166.939 92.1692L164.939 92.1525L164.865 99.8709L166.865 99.8875ZM165.93 93.1608L166.961 93.1694L166.98 91.1695L165.949 91.1609L165.93 93.1608ZM165.995 92.3903L166.355 93.9871L168.306 93.5453L167.946 91.9485L165.995 92.3903ZM167.321 94.7662L186.711 94.9278L186.73 92.9279L167.34 92.7663L167.321 94.7662ZM187.688 94.1784L188.077 92.6816L186.142 92.1804L185.752 93.6772L187.688 94.1784ZM187.1 93.431L188.131 93.4396L188.15 91.4397L187.119 91.4311L187.1 93.431ZM187.141 92.4313L187.083 98.4466L189.083 98.4633L189.141 92.4479L187.141 92.4313ZM188.093 97.455L167.296 97.2817L167.277 99.2816L188.073 99.4549L188.093 97.455Z" fill="black"/>
</g>
<defs>
<filter id="filter0_f_311_2" x="22.3342" y="7.29395" width="183.277" height="176.82" filterUnits="userSpaceOnUse" color-interpolation-filters="sRGB">
<feFlood flood-opacity="0" result="BackgroundImageFix"/>
<feBlend mode="normal" in="SourceGraphic" in2="BackgroundImageFix" result="shape"/>
<feGaussianBlur stdDeviation="2" result="effect1_foregroundBlur_311_2"/>
</filter>
<clipPath id="clip0_311_2">
<rect width="225" height="191" fill="white" transform="translate(0 1.5144) rotate(-0.385625)"/>
</clipPath>
</defs>
</svg>
