<svg width="33" height="30" viewBox="0 0 33 30" fill="none" xmlns="http://www.w3.org/2000/svg">
<path d="M27.5 0H5.5C2.46235 0 0 2.2385 0 5V25C0 27.7615 2.46235 30 5.5 30H27.5C30.5377 30 33 27.7615 33 25V5C33 2.2385 30.5377 0 27.5 0ZM15.0062 18.677C14.0118 19.5595 12.6819 20 11.0149 20C9.32855 20 7.9882 19.5615 6.9927 18.6835C5.99775 17.8065 5.49945 16.5985 5.49945 15.0595C5.49945 14.074 5.6727 13.247 6.01755 12.579C6.27871 12.0826 6.63668 11.6333 7.0741 11.253C7.52015 10.8615 8.00855 10.5715 8.5393 10.383C9.24715 10.128 10.0612 10 10.9841 10C12.655 10 13.9925 10.4415 14.9958 11.325C15.9984 12.21 16.4995 13.4385 16.4995 15.0125C16.4995 16.574 16.0023 17.796 15.0062 18.677ZM24.6312 20L21.6139 15.3065L19.816 16.9775V20H17.5995V10H19.816V14.4405L24.2941 10H27.2751L23.1407 13.8945L27.4995 20H24.6312Z" fill="#D81324"/>
</svg>
